<svg version="1.1" id="Layer_1" xmlns="http://www.w3.org/2000/svg" xmlns:xlink="http://www.w3.org/1999/xlink" x="0px" y="0px"
	 width="100%" viewBox="0 0 2918 2918" enable-background="new 0 0 2918 2918" xml:space="preserve">

<path fill="#B22025" opacity="1.000000" stroke="none" 
	d="
M5.196661,1431.687500 
	C11.507925,1366.060181 36.246761,1308.152222 79.901665,1258.922729 
	C127.904022,1204.790771 187.808075,1170.828735 259.581085,1159.792847 
	C355.151855,1145.097900 440.023376,1169.183594 513.298706,1232.760986 
	C517.567261,1236.464600 521.736145,1240.303101 525.732605,1244.297852 
	C629.916565,1348.434814 734.066833,1452.605225 838.257812,1556.735229 
	C840.841431,1559.317261 843.819092,1561.504883 845.506226,1562.937134 
	C796.766785,1611.675415 748.825623,1659.615601 700.884460,1707.555786 
	C701.239014,1708.449707 701.593567,1709.343628 701.948120,1710.237427 
	C699.410095,1707.782959 696.835632,1705.364868 694.339355,1702.868774 
	C590.643860,1599.186035 486.922668,1495.528809 383.297241,1391.776001 
	C365.463715,1373.920654 344.220947,1362.818970 319.219849,1360.574341 
	C292.379700,1358.164673 267.666199,1365.287842 246.611389,1382.525757 
	C222.103455,1402.591064 208.843048,1428.626343 208.402344,1460.480347 
	C207.742340,1508.186401 241.066681,1549.352905 285.596191,1559.681274 
	C322.379028,1568.213013 354.707581,1558.718384 381.928619,1532.526733 
	C392.466949,1522.386963 402.599701,1511.825806 411.907349,1502.471313 
	C460.369659,1550.934570 508.317444,1598.883179 556.768616,1647.335205 
	C556.381104,1647.761963 554.507751,1650.033081 552.422058,1652.088745 
	C533.941772,1670.304199 516.345642,1689.434082 495.493500,1705.147705 
	C454.317108,1736.176758 408.469269,1756.272827 357.427185,1763.650757 
	C340.079163,1766.158325 322.385864,1767.678711 304.880859,1767.437256 
	C251.733749,1766.704590 201.870987,1753.141235 155.741898,1726.378540 
	C133.167267,1713.281372 112.398491,1697.720825 94.008408,1679.305176 
	C53.374660,1638.615112 25.751301,1590.310303 12.323140,1534.292603 
	C8.931653,1520.144531 7.550494,1505.514526 4.845700,1489.642090 
	C3.738303,1484.097168 6.483155,1479.322754 2.000000,1476.000000 
	C2.000000,1466.621460 2.000000,1457.243042 2.738047,1446.793945 
	C4.049617,1441.044800 4.623139,1436.366089 5.196661,1431.687500 
z"/>
<path fill="#B22025" opacity="1.000000" stroke="none" 
	d="
M1492.054810,3.891426 
	C1557.829346,10.777882 1616.163452,35.281616 1665.587891,79.296158 
	C1719.088989,126.940971 1752.488525,186.372299 1764.144531,257.213684 
	C1776.479736,332.181854 1763.278320,402.685699 1724.167114,468.055359 
	C1712.165527,488.114410 1697.938843,506.535309 1681.416748,523.073059 
	C1576.373535,628.216675 1471.249268,733.279236 1366.214722,838.431335 
	C1363.892456,840.756287 1362.317139,843.827454 1360.922363,845.801758 
	C1311.392456,796.269592 1263.376709,748.251648 1214.954346,699.826965 
	C1216.483398,698.238159 1218.933594,695.605591 1221.474854,693.064026 
	C1324.911377,589.612488 1428.361450,486.174408 1531.794556,382.719360 
	C1548.230835,366.279694 1559.096436,347.043091 1562.490845,323.671143 
	C1566.864502,293.555969 1559.457642,266.559021 1539.905396,243.789902 
	C1513.390625,212.912659 1479.194702,201.476212 1439.358521,210.210098 
	C1393.973145,220.160614 1361.521973,262.845795 1361.472412,306.786835 
	C1361.438477,336.921814 1372.273315,361.747467 1393.249023,382.710114 
	C1403.108276,392.563385 1412.959351,402.424805 1422.092651,411.560822 
	C1373.669678,459.986023 1325.901001,507.756805 1277.213989,556.446045 
	C1278.713013,556.644287 1277.878174,556.794312 1277.520020,556.449463 
	C1251.384644,531.288696 1225.113403,506.316711 1205.402588,475.358368 
	C1181.471680,437.771545 1165.590088,397.236664 1159.866943,353.037567 
	C1157.699829,336.301514 1156.329346,319.302460 1156.550415,302.448914 
	C1157.083252,261.837250 1165.674927,222.738983 1182.035278,185.483688 
	C1196.067261,153.530396 1215.050903,124.887901 1239.005127,99.398003 
	C1285.184814,50.257820 1341.379395,19.782852 1407.612793,7.686421 
	C1415.756958,6.199018 1424.011841,5.317114 1433.877686,4.060289 
	C1439.693481,3.310637 1443.846680,2.655314 1448.000000,1.999995 
	C1457.378540,2.000000 1466.756958,2.000000 1477.453979,2.718633 
	C1483.199951,3.588653 1487.627319,3.740040 1492.054810,3.891426 
z"/>
<path fill="#B22025" opacity="1.000000" stroke="none" 
	d="
M1434.937256,2920.000000 
	C1426.599854,2918.736084 1419.202881,2917.454102 1411.799316,2916.211182 
	C1357.810913,2907.146484 1309.359375,2885.560547 1267.350098,2850.514160 
	C1209.165527,2801.973389 1173.373291,2739.995117 1160.592896,2665.321289 
	C1150.543823,2606.605957 1157.543335,2549.470947 1180.566895,2494.493652 
	C1195.908325,2457.860596 1217.887939,2425.574707 1245.983032,2397.478760 
	C1349.905273,2293.552490 1453.829468,2189.627930 1557.760010,2085.710205 
	C1560.537109,2082.933350 1563.395020,2080.237793 1565.797363,2077.909424 
	C1614.192749,2126.269287 1662.001831,2174.043213 1710.567749,2222.573242 
	C1708.299438,2224.940918 1705.666626,2227.793457 1702.924072,2230.536377 
	C1599.715088,2333.761719 1496.502930,2436.984375 1393.270020,2540.185791 
	C1377.828979,2555.622070 1366.828125,2573.539551 1363.198364,2595.290771 
	C1357.600342,2628.838135 1365.477539,2658.615967 1389.132935,2683.652832 
	C1409.968872,2705.705566 1435.763916,2716.489014 1465.908936,2715.547119 
	C1514.048584,2714.043213 1553.945435,2678.604492 1562.090942,2632.168701 
	C1568.280151,2596.885254 1557.594604,2566.570068 1532.604858,2541.182373 
	C1522.580322,2530.998291 1512.349731,2521.016602 1503.070801,2511.795410 
	C1551.570190,2463.296875 1599.522705,2415.345215 1647.946411,2366.922607 
	C1648.823364,2367.724121 1651.069946,2369.581299 1653.092896,2371.656494 
	C1670.737549,2389.757080 1689.464600,2406.783936 1704.916138,2427.011719 
	C1736.228638,2468.003418 1756.282593,2513.679443 1764.389038,2564.660889 
	C1774.954590,2631.107178 1765.261719,2694.428223 1734.924316,2754.407715 
	C1722.260742,2779.444824 1706.060547,2802.114746 1686.865845,2822.753906 
	C1641.150269,2871.910156 1585.101440,2902.113525 1519.578491,2915.200439 
	C1510.810303,2916.951904 1501.805176,2917.517822 1492.454834,2919.316406 
	C1473.291504,2920.000000 1454.583130,2920.000000 1434.937256,2920.000000 
z"/>
<path fill="#B22025" opacity="1.000000" stroke="none" 
	d="
M2920.000000,1499.062744 
	C2918.751221,1505.917236 2917.407227,1511.816284 2916.267822,1517.754395 
	C2905.223877,1575.316528 2880.313721,1625.837524 2840.515625,1669.094116 
	C2815.201172,1696.608643 2785.914795,1718.740845 2752.613770,1735.382568 
	C2716.885254,1753.237305 2679.008789,1763.567993 2638.993652,1766.438354 
	C2555.755127,1772.409180 2482.242920,1748.500732 2417.869873,1695.782715 
	C2412.473389,1691.363525 2407.263672,1686.668823 2402.330078,1681.739136 
	C2297.182861,1576.677490 2192.086914,1471.564819 2086.987793,1366.455444 
	C2084.190430,1363.658081 2081.465332,1360.788818 2079.288330,1358.551147 
	C2127.731201,1310.107422 2175.710938,1262.126953 2225.461914,1212.375122 
	C2226.972168,1214.559814 2228.661865,1218.001465 2231.226074,1220.569092 
	C2334.612061,1324.092651 2438.081543,1427.532227 2541.525879,1530.997192 
	C2556.211182,1545.685059 2573.229980,1556.353882 2593.807861,1560.282349 
	C2628.800293,1566.962891 2659.438232,1558.619873 2685.734863,1533.890015 
	C2715.502686,1505.895996 2725.146240,1459.284546 2708.306152,1421.838257 
	C2693.304199,1388.479248 2667.714111,1367.991455 2631.590088,1361.795532 
	C2596.934326,1355.851440 2567.360107,1366.894897 2542.443604,1391.098022 
	C2532.182129,1401.065796 2522.308105,1411.432129 2511.217285,1422.671509 
	C2462.712891,1374.174438 2414.801758,1326.270874 2366.295166,1277.771851 
	C2368.328125,1275.509277 2369.917236,1273.555054 2371.694580,1271.790283 
	C2392.702881,1250.929932 2412.891602,1229.217651 2437.322998,1212.058105 
	C2475.779297,1185.047852 2517.979004,1167.471558 2564.358154,1159.662842 
	C2590.108398,1155.327393 2616.016846,1154.162964 2641.876221,1156.495117 
	C2705.537842,1162.236450 2762.502441,1185.172241 2811.617188,1226.296143 
	C2866.348633,1272.123047 2900.609375,1330.490845 2915.372559,1400.223022 
	C2917.493408,1410.241699 2917.670166,1420.671875 2919.373291,1431.455811 
	C2920.000000,1454.041748 2920.000000,1476.083618 2920.000000,1499.062744 
z"/>
<path fill="#E6B6B8" opacity="1.000000" stroke="none" 
	d="
M4.658435,1431.692627 
	C4.623139,1436.366089 4.049617,1441.044800 2.738047,1445.861694 
	C2.000000,1441.916626 2.000000,1437.833374 2.000002,1432.875000 
	C2.706739,1431.899292 3.413474,1431.798462 4.658435,1431.692627 
z"/>
<path fill="#E3AFB1" opacity="1.000000" stroke="none" 
	d="
M2.000000,1476.875000 
	C6.483155,1479.322754 3.738303,1484.097168 4.331610,1489.004639 
	C3.850475,1489.894409 3.483606,1489.957886 2.558369,1490.010742 
	C2.000000,1485.916626 2.000000,1481.833374 2.000000,1476.875000 
z"/>
<path fill="#E6B7B9" opacity="1.000000" stroke="none" 
	d="
M1492.010254,3.419462 
	C1487.627319,3.740040 1483.199951,3.588653 1478.386230,2.718633 
	C1482.083374,2.000000 1486.166626,2.000000 1491.125000,2.000000 
	C1492.000000,2.000000 1491.965698,2.947498 1492.010254,3.419462 
z"/>
<path fill="#E3AFB1" opacity="1.000000" stroke="none" 
	d="
M1447.125000,1.999995 
	C1443.846680,2.655314 1439.693481,3.310637 1434.701172,3.853254 
	C1433.862061,3.740546 1433.907104,2.868381 1433.953613,2.434190 
	C1438.083374,2.000000 1442.166626,2.000000 1447.125000,1.999995 
z"/>
<path fill="#B22025" opacity="1.000000" stroke="none" 
	d="
M1335.270508,1077.270508 
	C1316.396851,1096.148560 1298.023193,1114.526611 1278.805786,1133.748657 
	C1275.842407,1130.969116 1272.985229,1128.434814 1270.288940,1125.739380 
	C1167.284668,1022.761292 1064.288452,919.775085 961.310547,816.770630 
	C944.629028,800.084778 925.175171,788.520020 901.588562,785.061768 
	C870.119446,780.447876 842.406738,788.883606 818.553284,809.978760 
	C796.916016,829.113892 785.831787,853.691956 784.673218,881.951782 
	C783.649841,906.915405 791.866577,929.729919 807.924194,949.268127 
	C811.928955,954.140930 816.316528,958.719238 820.745483,963.218933 
	C829.151001,971.758484 837.713501,980.143494 845.341370,987.728210 
	C797.016174,1036.053223 749.060608,1084.008789 700.547913,1132.521240 
	C699.999023,1132.042236 697.954834,1130.456909 696.139404,1128.642822 
	C676.367554,1108.884033 656.051575,1089.639526 639.486084,1066.916748 
	C610.360596,1026.965698 591.876648,982.660828 583.799133,933.859558 
	C580.081299,911.398193 579.291931,888.787170 580.552185,866.258057 
	C582.704041,827.791443 592.084961,790.884766 608.277954,755.806946 
	C623.358765,723.138245 643.699036,694.002502 669.044189,668.642212 
	C699.746948,637.921265 735.623352,614.823608 776.248047,599.085693 
	C822.165100,581.297485 869.906433,575.750122 918.375366,580.698303 
	C984.053345,587.403259 1042.035156,613.101807 1091.171875,657.733948 
	C1098.312012,664.219421 1105.337524,670.846375 1112.159912,677.664185 
	C1213.064331,778.500000 1313.919678,879.385071 1414.829956,980.214905 
	C1417.398071,982.781006 1420.458740,984.854126 1424.439453,988.092651 
	C1393.974121,1018.575684 1364.868408,1047.669189 1335.270508,1077.270508 
z"/>
<path fill="#B22025" opacity="1.000000" stroke="none" 
	d="
M1787.729126,2220.270508 
	C1692.274048,2124.816895 1597.318970,2029.863159 1503.261719,1935.807251 
	C1551.619019,1887.453857 1599.573120,1839.503784 1648.090576,1790.990356 
	C1649.274170,1792.104248 1651.934937,1794.479126 1654.453003,1796.996582 
	C1757.453857,1899.975464 1860.448364,2002.960571 1963.425049,2105.963623 
	C1979.071777,2121.614258 1997.140991,2133.080322 2019.130005,2137.146240 
	C2053.049561,2143.417969 2082.681641,2134.641846 2108.246094,2111.300293 
	C2147.247314,2075.689941 2154.219238,2009.988770 2108.789551,1964.269897 
	C2098.721680,1954.138062 2088.598389,1944.061401 2079.004395,1934.463257 
	C2127.367676,1886.084106 2175.121826,1838.314209 2223.304932,1790.115479 
	C2222.995361,1790.084961 2223.870361,1789.897827 2224.239990,1790.246216 
	C2255.301025,1819.538940 2285.198242,1849.788574 2305.985107,1887.728027 
	C2325.042236,1922.510742 2337.765381,1959.314331 2342.352783,1998.815918 
	C2350.906982,2072.475830 2336.696289,2141.247803 2296.480713,2203.767334 
	C2260.292236,2260.027344 2210.516846,2300.216309 2147.861084,2324.098145 
	C2121.965820,2333.968262 2095.213379,2339.947998 2067.545654,2342.445557 
	C2015.184082,2347.172607 1964.915649,2339.597900 1916.659546,2318.653320 
	C1886.182617,2305.425781 1858.317383,2288.104980 1834.031128,2265.386230 
	C1818.469604,2250.829102 1803.476929,2235.663330 1787.729126,2220.270508 
z"/>
<path fill="#B22025" opacity="1.000000" stroke="none" 
	d="
M581.669373,2007.675293 
	C587.857483,1945.131104 610.908386,1890.484985 650.060425,1842.643188 
	C657.627686,1833.396240 665.928894,1824.697632 674.380676,1816.234741 
	C776.338684,1714.141479 878.395752,1612.146973 980.377563,1510.077393 
	C983.190186,1507.262573 985.452026,1503.897583 987.651367,1501.182861 
	C996.083801,1505.737793 1112.507080,1620.793213 1134.501831,1645.715210 
	C1131.887695,1648.435547 1129.246826,1651.280518 1126.504150,1654.023682 
	C1024.250732,1756.292969 922.105530,1858.670898 819.627991,1960.715210 
	C798.906921,1981.348511 785.717896,2005.404419 784.691711,2034.516846 
	C783.761475,2060.905518 792.472412,2084.760010 810.313171,2104.887207 
	C829.701355,2126.760254 854.433289,2138.240723 883.065674,2139.308594 
	C908.340942,2140.250977 931.666199,2132.209961 951.032166,2115.292725 
	C961.548462,2106.106201 971.293518,2096.024170 981.195374,2086.154541 
	C983.999084,2083.359863 986.129944,2079.890137 987.859192,2077.649902 
	C1037.183716,2126.972900 1085.098145,2174.886230 1133.534424,2223.321289 
	C1132.813477,2224.152100 1131.238525,2226.209961 1129.420654,2228.024170 
	C1109.638184,2247.766113 1090.473145,2268.174316 1067.718018,2284.691895 
	C1027.729370,2313.718994 983.431580,2332.257080 934.621826,2340.240967 
	C911.838806,2343.967529 888.849304,2345.059082 866.032471,2343.419922 
	C799.854492,2338.666016 740.496765,2315.734131 689.494263,2272.831055 
	C632.589355,2224.962646 598.006653,2163.957764 584.454163,2090.983887 
	C580.002380,2067.013184 579.816833,2042.727905 580.384644,2018.443848 
	C580.461609,2015.151855 581.221619,2011.875977 581.669373,2007.675293 
z"/>
<path fill="#B22025" opacity="1.000000" stroke="none" 
	d="
M2287.706543,706.313232 
	C2317.905273,748.938843 2336.339355,795.395447 2342.326416,846.652161 
	C2348.821045,902.252686 2342.183105,956.038940 2319.710938,1007.574219 
	C2304.794189,1041.782349 2284.609375,1072.616821 2258.292969,1099.026123 
	C2153.141602,1204.549194 2047.697632,1309.780640 1942.352173,1415.110352 
	C1940.244995,1417.217041 1938.021362,1419.207153 1936.887329,1420.276001 
	C1888.748291,1372.124146 1840.845459,1324.208496 1792.263428,1275.613403 
	C1793.267212,1274.543335 1795.819702,1271.665649 1798.534424,1268.950195 
	C1901.502197,1165.955566 2004.464111,1062.955200 2107.484375,960.013062 
	C2126.825928,940.686340 2138.657471,917.792297 2140.092773,890.330017 
	C2142.674072,840.938110 2108.901123,796.593201 2060.410400,786.239502 
	C2023.606445,778.381165 1992.156128,789.413452 1965.487183,815.144714 
	C1955.219482,825.051147 1945.462769,835.487061 1936.090454,845.051697 
	C1887.325073,796.284668 1839.329224,748.287292 1790.788696,699.745056 
	C1802.363159,688.169189 1814.322876,675.652527 1826.875610,663.762024 
	C1859.696533,632.672668 1897.439941,609.474670 1940.357666,595.102905 
	C1971.108154,584.805481 2002.673340,579.855042 2035.277954,579.421326 
	C2087.321777,578.729065 2136.063477,590.427734 2182.079834,614.265381 
	C2205.543457,626.420227 2226.693359,641.837158 2246.272949,659.592529 
	C2261.638672,673.526733 2274.949463,689.168213 2287.706543,706.313232 
z"/>
<path fill="#B22025" opacity="1.000000" stroke="none" 
	d="
M1503.737915,1853.737915 
	C1455.208496,1902.276001 1407.178955,1950.314209 1359.819336,1997.682495 
	C1311.378174,1949.242432 1263.405762,1901.271240 1216.224487,1854.091187 
	C1332.841553,1737.474365 1450.301758,1620.014282 1567.126831,1503.189453 
	C1614.200928,1550.258301 1661.982544,1598.034668 1710.713867,1646.760620 
	C1642.578735,1714.895996 1573.408325,1784.067017 1503.737915,1853.737915 
z"/>
<path fill="#B22025" opacity="1.000000" stroke="none" 
	d="
M2181.737305,1751.737671 
	C2099.263916,1834.211670 2017.290649,1916.185791 1936.160156,1997.317017 
	C1887.905151,1949.061401 1839.958862,1901.114746 1792.859131,1854.014404 
	C1909.048706,1737.824951 2026.481323,1620.392578 2143.145508,1503.728394 
	C2189.994385,1550.578735 2237.923096,1598.509155 2286.439941,1647.027588 
	C2252.375244,1681.094727 2217.306396,1716.166260 2181.737305,1751.737671 
z"/>
<path fill="#B22025" opacity="1.000000" stroke="none" 
	d="
M1523.262207,967.262207 
	C1537.867310,952.660645 1551.972290,938.559082 1565.365234,925.169373 
	C1613.976929,973.779114 1661.956177,1021.756592 1709.522095,1069.320557 
	C1592.769043,1186.073730 1475.446777,1303.396118 1359.090210,1419.752808 
	C1311.661377,1372.323853 1263.716431,1324.378784 1214.931396,1275.593628 
	C1316.529053,1173.995850 1419.645630,1070.879028 1523.262207,967.262207 
z"/>
<path fill="#B22025" opacity="1.000000" stroke="none" 
	d="
M844.262207,1070.262207 
	C893.250671,1021.274292 941.739197,972.786438 989.491394,925.034851 
	C1037.987183,973.529358 1085.768066,1021.309021 1132.609253,1068.149048 
	C1015.691406,1185.066772 898.274841,1302.483154 781.603821,1419.154053 
	C734.987854,1372.537842 687.040161,1324.589966 638.487610,1276.037109 
	C706.296692,1208.227905 775.029480,1139.495117 844.262207,1070.262207 
z"/>
<path fill="#B22025" opacity="1.000000" stroke="none" 
	d="
M1139.736328,1858.263672 
	C1234.393433,1952.920532 1328.550293,2047.077637 1421.948364,2140.475830 
	C1373.347168,2189.079102 1325.432251,2236.996094 1278.192505,2284.237793 
	C1161.657715,2167.702881 1044.211548,2050.256348 927.272217,1933.316772 
	C974.405884,1886.190063 1022.162354,1838.440552 1070.625854,1789.984131 
	C1069.559326,1789.984131 1069.894531,1789.955200 1070.222168,1789.992554 
	C1070.541260,1790.028809 1070.956421,1790.027954 1071.152466,1790.221924 
	C1093.857788,1812.724976 1116.546631,1835.244873 1139.736328,1858.263672 
z"/>
<path fill="#B22025" opacity="1.000000" stroke="none" 
	d="
M1081.729736,1514.270020 
	C1029.429688,1461.970947 977.629639,1410.171875 926.664001,1359.207153 
	C974.999084,1310.862061 1022.912170,1262.939087 1070.005981,1215.835571 
	C1186.208252,1332.038086 1303.616333,1449.446289 1420.237183,1566.067261 
	C1373.309937,1612.994507 1325.387939,1660.916260 1276.881836,1709.422241 
	C1212.660400,1645.200684 1147.445068,1579.985229 1081.729736,1514.270020 
z"/>
<path fill="#B22025" opacity="1.000000" stroke="none" 
	d="
M1712.265015,1567.734985 
	C1642.027466,1497.501953 1572.289917,1427.768799 1500.466431,1355.949707 
	C1549.376709,1308.204712 1597.866211,1260.870483 1645.526733,1214.345581 
	C1762.750244,1331.569092 1880.193848,1449.012817 1996.975586,1565.794678 
	C1950.255371,1612.513794 1902.236206,1660.531616 1853.648682,1709.117920 
	C1807.379272,1662.848633 1760.072266,1615.541748 1712.265015,1567.734985 
z"/>
<path fill="#B22025" opacity="1.000000" stroke="none" 
	d="
M1693.270386,682.729980 
	C1795.536255,784.995850 1897.302124,886.761719 1998.136597,987.596069 
	C1949.945557,1035.799805 1902.016968,1083.740967 1855.004639,1130.765625 
	C1739.003174,1014.766602 1621.581665,897.347595 1504.932373,780.700623 
	C1551.505371,734.102112 1599.442505,686.138672 1648.045410,637.509155 
	C1662.298706,651.761047 1677.534546,666.995483 1693.270386,682.729980 
z"/>
</svg>